# xmcd CD database file
# Generated: Sat Mar  9 19:39:26 2013 by WSPse's MP3c
#
# Track frame offsets:
#       150
#       18105
#       30662
#       42427
#       53095
#       66594
#       77846
#       104577
#       117177
#       127655
#       139458
#       153048
#       172488
#       188399
#       206717
#       217417
#
# Disc length: 3124 seconds
#
# Revision: 0
# Processed by: cddbd v1.5.2PL0 Copyright (c) Steve Scherf et al.
# Submitted via: MP3c 0.31
#   WSPse mp3c-0.31 (NLS) - DEUTSCH (Mar  9 2013) Default:MP3
#
DISCID=e90c3210
DTITLE=The Cashbags - A Tribute to Johnny Cash
DYEAR=2012
DGENRE=Bluegrass
TTITLE0=(Ghost) Riders in the Sky
TTITLE1=Folsom Prison Blues
TTITLE2=I Walk the Line
TTITLE3=I Still Miss Someone
TTITLE4=Tennessee Flat-Top Box
TTITLE5=Ring of Fire
TTITLE6=Just Like a Woman
TTITLE7=Jackson
TTITLE8=Daddy Sang Bass
TTITLE9=Wildwood Flowers
TTITLE10=Travelin' Minstrel Band
TTITLE11=(Hey) What's New?
TTITLE12=Thirteen
TTITLE13=I See A Darkness
TTITLE14=Sam Hall
TTITLE15=Hurt
EXTD=
EXTT0=
EXTT1=
EXTT2=
EXTT3=
EXTT4=
EXTT5=
EXTT6=
EXTT7=
EXTT8=
EXTT9=
EXTT10=
EXTT11=
EXTT12=
EXTT13=
EXTT14=
EXTT15=
PLAYORDER=
